<svg viewBox="0 0 512 512" xmlns="http://www.w3.org/2000/svg" xmlns:xlink="http://www.w3.org/1999/xlink"><linearGradient id="a" gradientUnits="userSpaceOnUse" x1="90" x2="206" y1="155.6" y2="356.4"><stop offset="0" stop-color="#d4d7dd"/><stop offset=".5" stop-color="#d4d7dd"/><stop offset="1" stop-color="#bec1c6"/></linearGradient><linearGradient id="b" gradientUnits="userSpaceOnUse" x1="179.4" x2="226.7" y1="142.4" y2="224.3"><stop offset="0" stop-color="#f87171"/><stop offset=".5" stop-color="#f87171"/><stop offset="1" stop-color="#dc2626"/></linearGradient><linearGradient id="c" x1="252.5" x2="291.9" xlink:href="#b" y1="149.2" y2="217.5"/><linearGradient id="d" x1="325.6" x2="357.2" xlink:href="#b" y1="156" y2="210.7"/><path d="m148 376v-240" fill="none" stroke="url(#a)" stroke-linecap="round" stroke-linejoin="round" stroke-width="24"/><g stroke="#ef4444" stroke-miterlimit="10" stroke-width="2"><path d="m191.4 137 28.8 4.3a6.4 6.4 0 0 1 5.4 6.3v73.7a6.4 6.4 0 0 1 -5.4 6.3l-28.8 4.2a6.4 6.4 0 0 1 -7.3-6.4v-82a6.4 6.4 0 0 1 7.3-6.3z" fill="url(#b)"/><path d="m260.6 146.1 28.8 4.2a6.4 6.4 0 0 1 5.4 6.3v55.6a6.4 6.4 0 0 1 -5.5 6.3l-28.7 4.2a6.4 6.4 0 0 1 -7.3-6.3v-64a6.4 6.4 0 0 1 7.3-6.3z" fill="url(#c)"/><path d="m329.8 155.2 28.7 4.2a6.4 6.4 0 0 1 5.5 6.3v37.4a6.4 6.4 0 0 1 -5.5 6.3l-28.7 4.2a6.4 6.4 0 0 1 -7.3-6.3v-45.8a6.4 6.4 0 0 1 7.3-6.3z" fill="url(#d)"/></g></svg>